<svg width="29" height="29" viewBox="0 0 29 29" fill="none" xmlns="http://www.w3.org/2000/svg">
<path d="M28.9999 0.191666H0.230713V28.8083H28.9999V0.191666Z" fill="white"/>
<path d="M6.15384 9.31534C6.1202 8.24568 6.39981 7.18935 6.95864 6.27486C7.51747 5.36036 8.33144 4.62712 9.30153 4.16434C9.53717 4.00637 9.80218 3.89685 10.081 3.84221C10.3598 3.78757 10.6467 3.78891 10.925 3.84615C11.2033 3.90339 11.4672 4.01538 11.7014 4.17553C11.9355 4.33569 12.1351 4.54078 12.2885 4.77875C12.6075 5.14989 12.8908 5.55004 13.1346 5.97392C13.5549 6.5832 13.7259 7.32895 13.6127 8.05924C13.4995 8.78953 13.1106 9.44943 12.5254 9.9045C12.1108 10.2917 11.6792 10.6283 11.1885 10.9818C10.8594 11.2048 10.6121 11.5282 10.4839 11.9032C10.3557 12.2782 10.3535 12.6844 10.4777 13.0608C11.1481 15.3129 12.4099 17.3466 14.1331 18.9524C14.4384 19.2543 14.8357 19.447 15.2629 19.5004C15.6901 19.5537 16.123 19.4646 16.4938 19.247C17.1905 18.8926 17.9221 18.6105 18.6769 18.4053C19.1713 18.2569 19.7003 18.2691 20.1872 18.4401C20.6741 18.6112 21.0936 18.9321 21.3846 19.3564C21.7932 19.8807 22.1476 20.4447 22.4423 21.0397C22.5943 21.2879 22.6931 21.5646 22.7327 21.8525C22.7723 22.1404 22.7517 22.4334 22.6723 22.713C22.5929 22.9927 22.4563 23.253 22.2712 23.4777C22.086 23.7025 21.8562 23.8868 21.5961 24.0193C20.7541 24.6783 19.7314 25.0687 18.6623 25.1393C17.5932 25.2099 16.5276 24.9574 15.6054 24.4148C13.6333 23.3127 11.9471 21.7679 10.6808 19.9035C8.79471 17.5006 7.39527 14.7566 6.55999 11.8235C6.37384 11.0323 6.28922 10.1654 6.15384 9.31534Z" fill="black"/>
</svg>
