<svg width="223" height="60" viewBox="0 0 223 60" fill="none" xmlns="http://www.w3.org/2000/svg">
<path d="M87.63 3.42999H90.8L79.8 13.6L91.3 28.045H88.265L78.045 15.22L73.32 19.6V28.045H71V3.42999H73.34V16.67L87.63 3.42999Z" fill="white"/>
<path d="M106.725 3.70499C107.607 3.90055 108.451 4.23829 109.225 4.70499C109.935 5.18658 110.525 5.8246 110.95 6.56999C111.415 7.46216 111.64 8.4596 111.605 9.46499C111.609 10.0986 111.502 10.7279 111.29 11.325C111.111 11.9287 110.827 12.4958 110.45 13C110.082 13.5025 109.626 13.9345 109.105 14.275C108.573 14.6288 107.977 14.8751 107.35 15V15.07C108.811 15.2141 110.164 15.9031 111.14 17C112.091 18.1393 112.594 19.5864 112.555 21.07C112.548 21.7652 112.466 22.4576 112.31 23.135C112.106 23.9858 111.705 24.777 111.14 25.445C110.416 26.2577 109.512 26.8895 108.5 27.29C106.982 27.8583 105.365 28.1151 103.745 28.045H93.3149V3.42999H103.73C104.734 3.43421 105.737 3.52623 106.725 3.70499ZM106.175 13.875C106.804 13.7041 107.391 13.4063 107.9 13C108.336 12.6441 108.69 12.1969 108.935 11.69C109.17 11.1828 109.288 10.6291 109.28 10.07C109.28 6.99999 107.415 5.44999 103.73 5.44999H95.6599V14.22H103.73C104.558 14.2409 105.385 14.1243 106.175 13.875ZM106.21 25.805C106.947 25.6789 107.651 25.4051 108.28 25C108.876 24.6121 109.362 24.0764 109.69 23.445C110.058 22.6649 110.23 21.8066 110.19 20.945C110.19 19.36 109.64 18.15 108.535 17.36C107.43 16.57 105.81 16.185 103.71 16.185H95.6599V26.045H103.73C104.563 26.055 105.394 25.9746 106.21 25.805Z" fill="white"/>
<path d="M133.27 28.045L130.27 20.395H119.065L116.1 28.045H113.6L123.5 3.42999H126.12L135.775 28.045H133.27ZM129.5 18.395L124.74 5.77499L119.81 18.395H129.5Z" fill="white"/>
<path d="M141.165 21.085C141.646 19.4336 142.013 17.7514 142.265 16.05C142.497 14.4269 142.647 12.7932 142.715 11.155C142.75 9.56999 142.785 8.08499 142.785 6.65499V3.42999H158V26.045H160.935V34.6H158.59V28.045H138.89V34.6H136.545V26.045H139.13C139.978 24.4667 140.66 22.8044 141.165 21.085ZM145.13 6.25999C145.13 7.63499 145.13 9.11999 145.095 10.76C145.054 12.4449 144.916 14.1261 144.68 15.795C144.432 17.548 144.087 19.2857 143.645 21C143.157 22.7586 142.474 24.4573 141.61 26.065H155.675V5.42999H145.13V6.25999Z" fill="white"/>
<path d="M176.635 3.87999C177.49 4.17917 178.276 4.64863 178.945 5.25999C179.604 5.88739 180.116 6.65219 180.445 7.49999C180.796 8.44825 180.966 9.45406 180.945 10.465C180.965 11.4759 180.795 12.4815 180.445 13.43C180.123 14.2714 179.609 15.0262 178.945 15.635C178.283 16.2512 177.494 16.7169 176.635 17C175.67 17.3334 174.656 17.5024 173.635 17.5H165.05V28.05H162.705V3.42999H173.635C174.653 3.41165 175.667 3.56375 176.635 3.87999ZM177.085 14.255C178.085 13.43 178.585 12.155 178.585 10.465C178.585 8.77499 178.085 7.49999 177.085 6.66999C175.95 5.80355 174.546 5.36453 173.12 5.42999H165.05V15.5H173.12C174.547 15.5662 175.952 15.1252 177.085 14.255Z" fill="white"/>
<path d="M201.385 28.045L198.385 20.395H187.18L184.215 28.045H181.715L191.63 3.42999H194.25L203.905 28.045H201.385ZM197.595 18.395L192.835 5.77499L187.905 18.395H197.595Z" fill="white"/>
<path d="M223 3.42999V5.42999H214.415V28.045H212.07V5.42999H203.5V3.42999H223Z" fill="white"/>
<path d="M78.0849 54.055V41.725H79.7599V54.055H86.0999V41.725H87.7799V55.47H70.0649V41.725H71.7449V54.055H78.0849Z" fill="white"/>
<path d="M111.275 41.725H113.5V55.47H111.825V44.15H111.745L106.92 55.47H105.42L100.62 44.15H100.54V55.47H98.8601V41.725H101.1L106.215 53.575L111.275 41.725Z" fill="white"/>
<path d="M126.7 55.63C126.162 55.4919 125.662 55.2357 125.235 54.88C124.803 54.5529 124.459 54.1233 124.235 53.63C123.981 53.0697 123.855 52.46 123.865 51.845C123.82 51.0405 124.044 50.2439 124.5 49.58C124.953 49.031 125.54 48.6088 126.205 48.355C126.967 48.0543 127.763 47.8494 128.575 47.745L131.235 47.425C131.549 47.3987 131.861 47.3536 132.17 47.29C132.415 47.2449 132.648 47.1458 132.85 47C133.039 46.865 133.186 46.6796 133.275 46.465C133.369 46.1727 133.415 45.867 133.41 45.56C133.43 45.076 133.339 44.5937 133.145 44.15C132.96 43.8064 132.694 43.513 132.37 43.295C132.019 43.0763 131.631 42.9238 131.225 42.845C130.759 42.7665 130.287 42.7297 129.815 42.735C128.884 42.695 127.967 42.9639 127.205 43.5C126.85 43.7989 126.568 44.1762 126.384 44.6022C126.199 45.0282 126.115 45.4913 126.14 45.955H124.46C124.567 44.3317 125.127 43.165 126.14 42.455C127.287 41.6887 128.647 41.307 130.025 41.365C130.633 41.3661 131.241 41.4197 131.84 41.525C132.419 41.6426 132.97 41.8682 133.465 42.19C133.956 42.5251 134.357 42.9747 134.635 43.5C134.961 44.2091 135.117 44.9848 135.09 45.765V53.065C135.07 53.201 135.082 53.3398 135.125 53.4704C135.168 53.601 135.241 53.7196 135.338 53.8169C135.435 53.9141 135.554 53.9872 135.685 54.0303C135.815 54.0734 135.954 54.0853 136.09 54.065C136.273 54.0771 136.456 54.0409 136.62 53.96V55.37L136.12 55.45C135.926 55.4772 135.731 55.4872 135.535 55.48C135.191 55.4982 134.848 55.433 134.535 55.29C134.282 55.1961 134.067 55.0201 133.925 54.79C133.776 54.5586 133.685 54.2943 133.66 54.02C133.604 53.7031 133.577 53.3818 133.58 53.06H133.5C133.222 53.4697 132.92 53.8621 132.595 54.235C132.287 54.5698 131.938 54.8638 131.555 55.11C131.139 55.3509 130.692 55.531 130.225 55.645C129.657 55.7821 129.074 55.8443 128.49 55.83C127.888 55.8331 127.287 55.766 126.7 55.63ZM130.455 54.165C131.02 53.981 131.544 53.6908 132 53.31C132.431 52.9309 132.783 52.4704 133.035 51.955C133.287 51.3833 133.415 50.7647 133.41 50.14V47.955H133.355C133.215 48.1717 132.996 48.3258 132.745 48.385C132.483 48.4667 132.216 48.5286 131.945 48.57C131.225 48.705 130.505 48.81 129.76 48.89C129.058 48.9849 128.364 49.1353 127.685 49.34C127.127 49.5076 126.614 49.8 126.185 50.195C125.978 50.3933 125.815 50.634 125.709 50.9006C125.603 51.1671 125.556 51.4534 125.57 51.74C125.556 52.1309 125.65 52.5182 125.84 52.86C125.991 53.1921 126.219 53.4834 126.505 53.71C127.102 54.2063 127.859 54.4708 128.635 54.455C129.253 54.451 129.867 54.3532 130.455 54.165Z" fill="white"/>
<path d="M156.61 41.725V43.135H151.525V55.47H149.845V43.135H144.76V41.725H156.61Z" fill="white"/>
<path d="M169.16 55.255C168.366 54.9043 167.662 54.3757 167.105 53.71C166.546 53.0243 166.122 52.2387 165.855 51.395C165.288 49.573 165.288 47.622 165.855 45.8C166.121 44.9545 166.545 44.1672 167.105 43.48C167.668 42.8135 168.369 42.2777 169.16 41.91C170.025 41.501 170.974 41.3006 171.93 41.325C172.894 41.3046 173.85 41.5047 174.725 41.91C175.504 42.2926 176.194 42.8342 176.75 43.5C177.308 44.1812 177.732 44.9615 178 45.8C178.567 47.622 178.567 49.573 178 51.395C177.733 52.2387 177.309 53.0243 176.75 53.71C176.197 54.3682 175.506 54.8958 174.725 55.255C173.85 55.6603 172.894 55.8604 171.93 55.84C170.974 55.8644 170.025 55.664 169.16 55.255ZM174.03 53.95C174.622 53.6225 175.134 53.1683 175.53 52.62C175.936 52.0437 176.242 51.403 176.435 50.725C176.626 50.0309 176.725 49.3148 176.73 48.595C176.723 47.8671 176.624 47.143 176.435 46.44C176.237 45.7732 175.931 45.1433 175.53 44.575C175.135 44.0254 174.623 43.571 174.03 43.245C173.38 42.9099 172.659 42.7351 171.927 42.7351C171.196 42.7351 170.475 42.9099 169.825 43.245C169.23 43.5686 168.717 44.0235 168.325 44.575C167.914 45.1376 167.608 45.7692 167.42 46.44C167.211 47.1394 167.103 47.8651 167.1 48.595C167.101 49.3169 167.209 50.0346 167.42 50.725C167.602 51.407 167.909 52.0494 168.325 52.62C168.719 53.1705 169.231 53.6251 169.825 53.95C170.476 54.2819 171.197 54.4549 171.927 54.4549C172.658 54.4549 173.379 54.2819 174.03 53.95Z" fill="white"/>
<path d="M198.38 42.55C198.763 42.8281 199.068 43.1988 199.269 43.6273C199.469 44.0558 199.557 44.5281 199.525 45C199.546 45.7317 199.33 46.4505 198.91 47.05C198.468 47.6155 197.851 48.0183 197.155 48.195V48.25C197.965 48.3542 198.716 48.7296 199.285 49.315C199.83 49.9707 200.105 50.8089 200.055 51.66C200.085 52.1998 199.987 52.7391 199.77 53.2342C199.553 53.7293 199.222 54.1663 198.805 54.51C197.98 55.175 196.755 55.51 195.13 55.51H188.845V41.725H195.13C196.273 41.6506 197.411 41.9393 198.38 42.55ZM197.125 47.05C197.363 46.8484 197.552 46.5948 197.677 46.3087C197.802 46.0227 197.859 45.7118 197.845 45.4C197.845 43.9 196.885 43.135 194.94 43.135H190.5V47.665H194.92C195.704 47.7181 196.482 47.5011 197.125 47.05ZM197.55 53.39C197.836 53.1575 198.061 52.8589 198.205 52.52C198.35 52.1812 198.41 51.8122 198.38 51.445C198.402 51.0947 198.337 50.7444 198.193 50.4246C198.048 50.1048 197.827 49.8251 197.55 49.61C196.995 49.18 196.115 48.97 194.94 48.97H190.5V54.055H194.92C196.115 54.055 197 53.845 197.55 53.39Z" fill="white"/>
<path d="M213.615 55.255C212.823 54.9029 212.122 54.3744 211.565 53.71C211.004 53.0256 210.579 52.2397 210.315 51.395C209.742 49.5741 209.742 47.6209 210.315 45.8C210.579 44.9538 211.004 44.1662 211.565 43.48C212.127 42.8152 212.827 42.2797 213.615 41.91C214.48 41.5015 215.429 41.3012 216.385 41.325C217.349 41.304 218.305 41.5042 219.18 41.91C219.959 42.2926 220.649 42.8343 221.205 43.5C221.767 44.1868 222.192 44.9741 222.46 45.82C223.027 47.642 223.027 49.593 222.46 51.415C222.192 52.2591 221.766 53.0447 221.205 53.73C220.652 54.3882 219.961 54.9158 219.18 55.275C218.305 55.6809 217.349 55.881 216.385 55.86C215.427 55.8776 214.478 55.6704 213.615 55.255ZM218.5 53.95C219.091 53.6211 219.603 53.1672 220 52.62C220.404 52.0425 220.71 51.4022 220.905 50.725C221.094 50.0307 221.192 49.3146 221.195 48.595C221.19 47.8673 221.092 47.1432 220.905 46.44C220.705 45.7739 220.4 45.1443 220 44.575C219.604 44.0265 219.092 43.5723 218.5 43.245C217.849 42.9099 217.127 42.7351 216.395 42.7351C215.663 42.7351 214.941 42.9099 214.29 43.245C213.696 43.5699 213.184 44.0245 212.79 44.575C212.377 45.1364 212.071 45.7684 211.885 46.44C211.674 47.1389 211.566 47.8649 211.565 48.595C211.564 49.3171 211.672 50.0352 211.885 50.725C212.065 51.4078 212.372 52.0506 212.79 52.62C213.185 53.1696 213.697 53.624 214.29 53.95C214.942 54.2819 215.663 54.455 216.395 54.455C217.127 54.455 217.848 54.2819 218.5 53.95Z" fill="white"/>
<path d="M25.0849 4.935V53.97H1.87988V4.935H25.0849ZM26.5849 3.435H0.379883V55.47H26.5849V3.435Z" fill="white"/>
<path d="M26.5849 29.12H0.379883" stroke="white" stroke-width="3" stroke-miterlimit="10"/>
<path d="M26.5799 29.12L25.0249 3.435H52.4149L26.5799 29.12Z" fill="white"/>
<path d="M52.415 55.47L26.58 29.12L25.665 55.47H52.415Z" fill="white"/>
<path d="M51.2899 4.92999V54.34H1.87988V4.92999H51.2899ZM52.7899 3.42999H0.379883V55.84H52.7899V3.42999Z" fill="white"/>
</svg>
